<?xml version="1.0" encoding="utf-8"?>
<svg xmlns="http://www.w3.org/2000/svg" height="1024" width="1024" viewBox="0 0 1024 1024">
  <g>
    <path id="path1" height="1024" width="1024" transform="rotate(360,511.999954223994,512) translate(1023.99990844799,0) scale(-23.9998104587265,23.9998104587265)  " fill="#FFFFFF" d="M11.5969,28.249001L24.217761,33.098836C24.16946,33.313046 24.140259,33.534358 24.140259,33.762269 24.140259,35.451852 25.509387,36.821717 27.198822,36.821717 28.439147,36.821717 29.50177,36.081382 29.981479,35.020129L35.839,36.945323C32.031021,40.485295 26.943017,42.667003 21.333501,42.667003 14.096952,42.667003 7.7133808,39.054826 3.8560009,33.544158L4.1893482,33.78897 7.2851124,29.570665C7.7427206,29.842178 8.2694216,30.007586 8.8384933,30.007586 10.061169,30.007586 11.10799,29.286052 11.5969,28.249001z M32.902901,26.282L38.6061,33.624101 38.955,33.35192C38.1562,34.521041,37.2414,35.601068,36.2323,36.588L36.368401,36.173228 30.218001,34.152066C30.235001,34.023774 30.257801,33.896182 30.257801,33.762692 30.257801,32.650767 29.657501,31.686633 28.770001,31.150868L30.667301,26.58408C30.905501,26.644575 31.152301,26.685772 31.411401,26.685772 31.956301,26.685772 32.4602,26.531383 32.902901,26.282z M18.7644,22.982999C19.308691,23.827999 20.253977,24.3925 21.334061,24.3925 21.641957,24.3925 21.932352,24.333899 22.210948,24.248599L25.501999,31.220601C25.104106,31.4857,24.784611,31.846801,24.548115,32.263001L11.8537,27.3859C11.873899,27.2414 11.898,27.0989 11.898,26.9498 11.898,26.6614 11.845901,26.3899 11.771001,26.1255z M24.156652,22.511L28.388165,23.269382C28.373867,23.388578 28.352467,23.504476 28.352468,23.626873 28.352467,24.738846 28.952041,25.702923 29.840002,26.23881L27.941485,30.805699C27.702596,30.745202 27.456607,30.704204 27.198718,30.704204 26.890932,30.704204 26.600544,30.762801 26.320557,30.847999L23.031001,23.876166C23.528379,23.544174,23.922862,23.069486,24.156652,22.511z M26.455731,14.300001C26.769053,14.409302 27.101078,14.479703 27.452004,14.479703 27.713024,14.479703 27.962441,14.437302 28.20386,14.376101L30.124001,20.859883C29.452153,21.173087,28.913713,21.717393,28.61359,22.397001L24.362576,21.635892C24.371577,21.53439 24.393078,21.437389 24.393078,21.333289 24.393078,20.422377 23.986148,19.614466 23.356002,19.05456z M14.953259,9.8719997L24.404654,11.298354 24.392954,11.421453C24.392954,12.43575,24.892933,13.329046,25.654,13.886944L22.606631,18.560027C22.218647,18.381027 21.788966,18.274827 21.334585,18.274827 19.645158,18.274827 18.276016,19.644022 18.276017,21.333516 18.276016,21.621314 18.328114,21.893413 18.402411,22.158312L11.40981,25.301C11.029627,24.709202,10.450952,24.267704,9.7680006,24.049005L11.720297,12.12005C11.816093,12.129151 11.909789,12.149351 12.008184,12.149351 13.425324,12.149351 14.606974,11.179855 14.953259,9.8719997z M7.4308138,5.1739998L7.208168,5.4103289 9.4106379,7.4916162C9.1229229,7.9579134 8.9490557,8.5022302 8.9490557,9.0913973 8.9490557,10.367339 9.7309017,11.457932 10.841001,11.916829L8.8826475,23.895257C7.1496086,23.890058 5.7799244,25.260448 5.7799244,26.949939 5.7799244,27.744834 6.0904293,28.46163 6.5877686,29.005926L3.5624847,33.127002C1.3163872,29.748722 0,25.695346 0,21.334073 0,14.868712 2.8879681,9.0874267 7.4308138,5.1739998z M30.212588,1.9540005C37.556336,5.3250408 42.667,12.723536 42.667,21.332965 42.667,25.619577 41.39101,29.602591 39.215125,32.945003L33.617564,25.737278C34.141561,25.187777 34.469658,24.446274 34.469658,23.626572 34.469658,21.937166 33.099268,20.567361 31.41118,20.567362 31.264581,20.567361 31.125281,20.591461 30.985483,20.610261L29.036096,14.02634C29.91639,13.489238 30.509386,12.528935 30.509386,11.422131 30.509386,10.071927 29.629792,8.9383931 28.415001,8.5328121z M26.068981,0.54600048C27.348922,0.83694363,28.587163,1.2314596,29.769002,1.7405891L29.370389,1.6311636 27.528628,8.3711815C26.033779,8.362762,24.852641,9.3320827,24.505729,10.639999L15.053519,9.2136784 15.06592,9.0913134C15.06592,8.4298992,14.852313,7.8217735,14.495001,7.3217931z M21.333083,0C22.486656,0,23.609028,0.11718178,24.712002,0.29362488L13.846866,6.6598082C13.333278,6.2718287 12.701894,6.031601 12.00841,6.031601 11.23243,6.031601 10.532646,6.3291354 9.9935493,6.8050003L7.8660011,4.7946663C11.539122,1.8000746,16.225808,0,21.333083,0z" />
  </g>
</svg>

